<svg xmlns="http://www.w3.org/2000/svg" viewBox="0 0 64 64">
  <!-- Outer ring: cycle of inevitability -->
  <circle cx="32" cy="32" r="29" fill="none" stroke="#00ff41" stroke-width="2.5" opacity="0.3"/>
  <!-- Orbiting arrows (3): arbitrage flow between exchanges -->
  <g fill="#00ff41">
    <!-- Top arrow -->
    <path d="M32 5 L36 11 L33 11 L33 8 A24 24 0 0 1 53.5 22 L56 20.5 A27 27 0 0 0 32 5Z" opacity="0.8"/>
    <!-- Bottom-left arrow -->
    <path d="M12.5 46 L10 42 L13 43 L11.5 40.5 A24 24 0 0 1 19 12 L16.5 10 A27 27 0 0 0 9 48Z" opacity="0.8"/>
    <!-- Bottom-right arrow -->
    <path d="M55.5 42 L54 46 L52 43.5 L53 41 A24 24 0 0 1 38 56 L39.5 59 A27 27 0 0 0 58 40Z" opacity="0.8"/>
  </g>
  <!-- Inner: stylized Alpha (A) for Ananke -->
  <text x="32" y="42" text-anchor="middle" font-family="serif" font-weight="700" font-size="30" fill="#00ff41" opacity="0.9">A</text>
  <!-- Glow effect -->
  <circle cx="32" cy="32" r="20" fill="none" stroke="#00ff41" stroke-width="0.5" opacity="0.15"/>
</svg>
